# xmcd
#
# Track frame offsets:
# 188
# 12938
# 27075
# 47138
# 63038
# 76425
# 87788
# 99600
# 116025
# 129075
# 146363
# 161738
# 173138
# 187950
# 202088
# 215063
#
# Disc length: 3052 seconds
#
#
# Revision: 0
# Processed by: cddbd v1.5.2PL0 Copyright (c) Steve Scherf et al.
# Submitted via: FreeRIP 2.951 
#
DISCID=d40bea10
DTITLE=Die_volkstuemliche_Hitparade - Die_volkstuemliche_Hitparade
DYEAR=1900
DGENRE=
TTITLE0=Zillertaler Schuerzenjaeger - Ich habe mein Wort einer anderen gegeben
TTITLE1=Andy and Bernd - Ich bin so gut zu dir
TTITLE2=Vico Torriani - Des Himmelschoenste Kind
TTITLE3=Tiroler Nachtschwaermer - Sag' einfach Du zu mir
TTITLE4=Andi Warda - Die Sterne am Himmel drob'n
TTITLE5=Gitti and Erika - Mein Schatz das ist ein Feuerwehrmann
TTITLE6=Bert Beel - Hallo Nachbar
TTITLE7=Die Ranchers - Ich hab dein Bild im Portemonnaie
TTITLE8=Sepp und die Steigerwaelder Musikanten - Kleine Leute
TTITLE9=Rosi - Das Kitzbuehel Lied
TTITLE10=Walter Oberbrandacher - Hallo, servus Evi
TTITLE11=Original Tiroler Echo - Eine unter Tausend
TTITLE12=Marc Bianco - Das Glueck is so scheu wia a Nachtigall
TTITLE13=Goldried Quinett - Gockel-Hochzeit
TTITLE14=Mürztaler Musikanten - Zack Prack
TTITLE15=Mandy Schneebeli und seine Musikanten Edelweiss - Schwyzer Laender
EXTD=
EXTT0=
EXTT1=
EXTT2=
EXTT3=
EXTT4=
EXTT5=
EXTT6=
EXTT7=
EXTT8=
EXTT9=
EXTT10=
EXTT11=
EXTT12=
EXTT13=
EXTT14=
EXTT15=
PLAYORDER=
